<svg width="18" height="17" viewBox="0 0 18 17" fill="none" xmlns="http://www.w3.org/2000/svg">
<path fill-rule="evenodd" clip-rule="evenodd" d="M16.4667 1.36927C16.4757 1.23127 16.4273 1.09568 16.3328 0.994664C16.2384 0.893646 16.1063 0.836195 15.968 0.835938H2.00002C1.86167 0.835999 1.72952 0.893389 1.63502 0.994453C1.54053 1.09552 1.49213 1.23122 1.50136 1.36927C1.74232 4.72445 4.18698 7.50916 7.48269 8.1826V14.7659C7.48276 14.9599 7.595 15.1363 7.77064 15.2186C7.94629 15.3008 8.15366 15.2741 8.30269 15.1499L10.3027 13.4833C10.4168 13.3884 10.4828 13.2477 10.4827 13.0993V8.1826C13.7796 7.51041 16.2256 4.72534 16.4667 1.36927Z" stroke="white" stroke-width="1.5" stroke-linecap="round" stroke-linejoin="round"/>
</svg>
