<svg width="160" height="49" viewBox="0 0 160 49" fill="none" xmlns="http://www.w3.org/2000/svg">
<path d="M5.976 31.576C4.464 31.576 3.264 31.132 2.376 30.244C1.512 29.332 1.08 28.18 1.08 26.788C1.08 24.676 2.064 23.08 4.032 22C6 20.896 8.364 20.284 11.124 20.164V18.292C11.124 16.108 10.308 15.016 8.676 15.016C7.62 15.016 6.756 15.352 6.084 16.024C6.372 16.36 6.516 16.816 6.516 17.392C6.516 17.968 6.312 18.484 5.904 18.94C5.52 19.396 4.944 19.624 4.176 19.624C3.456 19.624 2.892 19.396 2.484 18.94C2.076 18.46 1.872 17.872 1.872 17.176C1.872 16.24 2.208 15.412 2.88 14.692C3.552 13.972 4.464 13.42 5.616 13.036C6.792 12.628 8.076 12.424 9.468 12.424C13.908 12.424 16.128 14.716 16.128 19.3L16.092 25.204C16.092 26.356 16.044 27.412 15.948 28.372C16.74 28.3 17.52 28.264 18.288 28.264V31H11.484C11.436 30.688 11.388 30.136 11.34 29.344H11.304C9.84 30.832 8.064 31.576 5.976 31.576ZM8.244 28.048C9.324 28.048 10.272 27.616 11.088 26.752V22.72C9.672 22.864 8.496 23.224 7.56 23.8C6.648 24.376 6.192 25.156 6.192 26.14C6.192 26.788 6.384 27.268 6.768 27.58C7.176 27.892 7.668 28.048 8.244 28.048ZM20.3549 28.66C21.2669 28.66 21.8429 28.408 22.0829 27.904C22.3469 27.4 22.4789 26.584 22.4789 25.456V19.408C22.4789 18.328 22.5269 17.308 22.6229 16.348L20.1029 16.456V13.72C21.6149 13.72 22.8389 13.612 23.7749 13.396C24.7109 13.18 25.3349 12.928 25.6469 12.64H27.4109C27.4109 12.688 27.4589 13.288 27.5549 14.44H27.6269C28.3229 13.888 29.1749 13.42 30.1829 13.036C31.2149 12.628 32.0909 12.424 32.8109 12.424C34.9949 12.424 36.5549 13.048 37.4909 14.296C38.4269 15.544 38.8949 17.572 38.8949 20.38V25.204C38.8949 26.356 38.8469 27.412 38.7509 28.372C39.5429 28.3 40.3229 28.264 41.0909 28.264V31H31.6589V28.66C32.5709 28.66 33.1589 28.408 33.4229 27.904C33.6869 27.4 33.8189 26.584 33.8189 25.456L33.7829 20.344C33.7829 18.76 33.5549 17.596 33.0989 16.852C32.6669 16.108 31.9229 15.736 30.8669 15.736C30.2909 15.736 29.7029 15.868 29.1029 16.132C28.5029 16.372 27.9989 16.684 27.5909 17.068V25.204C27.5909 26.356 27.5429 27.412 27.4469 28.372C28.2149 28.3 28.9949 28.264 29.7869 28.264V31H20.3549V28.66ZM50.1587 31.576C46.4147 31.576 44.5427 29.272 44.5427 24.664L44.6147 15.988H42.1667V13C42.9347 13 43.6547 12.76 44.3267 12.28C45.0227 11.8 45.6107 11.212 46.0907 10.516C46.5707 9.82 46.9067 9.148 47.0987 8.5H49.7627L49.7267 13H54.2987V15.772L49.7267 15.88L49.6907 24.736C49.6907 27.064 50.4107 28.228 51.8507 28.228C53.0027 28.228 54.0947 27.508 55.1267 26.068L56.8547 27.688C55.7267 29.344 54.5987 30.412 53.4707 30.892C52.3427 31.348 51.2387 31.576 50.1587 31.576ZM62.9778 9.436C62.1618 9.436 61.4898 9.16 60.9618 8.608C60.4338 8.032 60.1698 7.336 60.1698 6.52C60.1698 5.704 60.4458 5.008 60.9978 4.432C61.5498 3.832 62.1978 3.532 62.9418 3.532C63.7098 3.532 64.3458 3.82 64.8498 4.396C65.3778 4.972 65.6418 5.68 65.6418 6.52C65.6418 7.36 65.3898 8.056 64.8858 8.608C64.4058 9.16 63.7698 9.436 62.9778 9.436ZM57.9018 28.66C58.8138 28.66 59.3898 28.408 59.6298 27.904C59.8938 27.4 60.0258 26.584 60.0258 25.456V19.48C60.0258 18.352 60.0738 17.308 60.1698 16.348L57.6498 16.456V13.72C59.1618 13.72 60.3858 13.612 61.3218 13.396C62.2578 13.18 62.8818 12.928 63.1938 12.64H65.1378V25.204C65.1378 26.356 65.0898 27.412 64.9938 28.372C65.7618 28.3 66.5418 28.264 67.3338 28.264V31H57.9018V28.66ZM78.1751 31.576C76.5431 31.576 75.0551 31.216 73.7111 30.496C72.3671 29.752 71.2991 28.696 70.5071 27.328C69.7151 25.936 69.3191 24.292 69.3191 22.396C69.3191 20.596 69.7151 18.94 70.5071 17.428C71.2991 15.892 72.4031 14.68 73.8191 13.792C75.2591 12.88 76.8791 12.424 78.6791 12.424C80.1431 12.424 81.3911 12.652 82.4231 13.108C83.4791 13.564 84.2711 14.176 84.7991 14.944C85.3271 15.688 85.5911 16.492 85.5911 17.356C85.5911 18.1 85.3631 18.736 84.9071 19.264C84.4751 19.792 83.8751 20.056 83.1071 20.056C82.3151 20.056 81.7151 19.816 81.3071 19.336C80.9231 18.856 80.7311 18.316 80.7311 17.716C80.7311 17.164 80.8751 16.636 81.1631 16.132C80.9471 15.7 80.5991 15.4 80.1191 15.232C79.6391 15.04 79.1591 14.944 78.6791 14.944C77.4551 14.944 76.4591 15.508 75.6911 16.636C74.9471 17.74 74.5751 19.312 74.5751 21.352C74.5751 23.392 74.9711 25.072 75.7631 26.392C76.5551 27.712 77.8031 28.372 79.5071 28.372C80.4671 28.372 81.4151 28.12 82.3511 27.616C83.2871 27.112 84.0791 26.44 84.7271 25.6L86.3831 27.22C85.1831 28.876 83.8991 30.016 82.5311 30.64C81.1631 31.264 79.7111 31.576 78.1751 31.576ZM97.1319 31.576C95.3799 31.576 93.8079 31.204 92.4159 30.46C91.0239 29.716 89.9319 28.648 89.1399 27.256C88.3479 25.864 87.9519 24.244 87.9519 22.396C87.9519 20.452 88.3599 18.724 89.1759 17.212C89.9919 15.7 91.0839 14.524 92.4519 13.684C93.8439 12.844 95.3679 12.424 97.0239 12.424C98.7519 12.424 100.3 12.796 101.668 13.54C103.036 14.284 104.116 15.364 104.908 16.78C105.7 18.172 106.096 19.804 106.096 21.676C106.096 23.668 105.712 25.408 104.944 26.896C104.2 28.384 103.144 29.536 101.776 30.352C100.432 31.168 98.8839 31.576 97.1319 31.576ZM97.2039 29.02C98.5239 29.02 99.4479 28.408 99.9759 27.184C100.504 25.96 100.768 24.424 100.768 22.576C100.768 20.512 100.468 18.724 99.8679 17.212C99.2679 15.7 98.3199 14.944 97.0239 14.944C95.7039 14.944 94.7439 15.568 94.1439 16.816C93.5439 18.064 93.2439 19.6 93.2439 21.424C93.2439 23.512 93.5679 25.3 94.2159 26.788C94.8639 28.276 95.8599 29.02 97.2039 29.02ZM109.5 18.616C109.212 17.968 109.008 17.476 108.888 17.14C108.792 16.804 108.72 16.516 108.672 16.276C108.624 16.012 108.588 15.808 108.564 15.664L107.232 15.736V13H115.656V15.304C114.84 15.328 114.432 15.724 114.432 16.492C114.432 16.924 114.552 17.464 114.792 18.112L117.816 25.564H117.852L120.48 18.148C120.816 17.236 121.212 16.396 121.668 15.628V15.592L119.436 15.736V13H126.276V15.304C125.532 15.424 124.896 15.892 124.368 16.708C123.864 17.524 123.384 18.496 122.928 19.624L118.32 31.108H115.188L109.5 18.616ZM132.939 9.436C132.123 9.436 131.451 9.16 130.923 8.608C130.395 8.032 130.131 7.336 130.131 6.52C130.131 5.704 130.407 5.008 130.959 4.432C131.511 3.832 132.159 3.532 132.903 3.532C133.671 3.532 134.307 3.82 134.811 4.396C135.339 4.972 135.603 5.68 135.603 6.52C135.603 7.36 135.351 8.056 134.847 8.608C134.367 9.16 133.731 9.436 132.939 9.436ZM127.863 28.66C128.775 28.66 129.351 28.408 129.591 27.904C129.855 27.4 129.987 26.584 129.987 25.456V19.48C129.987 18.352 130.035 17.308 130.131 16.348L127.611 16.456V13.72C129.123 13.72 130.347 13.612 131.283 13.396C132.219 13.18 132.843 12.928 133.155 12.64H135.099V25.204C135.099 26.356 135.051 27.412 134.955 28.372C135.723 28.3 136.503 28.264 137.295 28.264V31H127.863V28.66ZM146.588 31.576C145.148 31.576 143.876 31.204 142.772 30.46C141.692 29.716 140.84 28.66 140.216 27.292C139.616 25.9 139.316 24.292 139.316 22.468C139.316 20.548 139.688 18.832 140.432 17.32C141.176 15.784 142.22 14.584 143.564 13.72C144.932 12.856 146.492 12.424 148.244 12.424C149.18 12.424 150.248 12.64 151.448 13.072V10.696C151.448 9.544 151.496 8.488 151.592 7.528C150.8 7.6 149.948 7.636 149.036 7.636V4.9C150.548 4.9 151.772 4.792 152.708 4.576C153.644 4.36 154.268 4.108 154.58 3.82H156.524V25.204C156.524 26.356 156.476 27.412 156.38 28.372C157.172 28.3 157.952 28.264 158.72 28.264V31H151.88L151.7 29.344H151.664C150.248 30.832 148.556 31.576 146.588 31.576ZM148.46 28.3C149.06 28.3 149.624 28.144 150.152 27.832C150.68 27.52 151.112 27.1 151.448 26.572V15.772C151.184 15.58 150.812 15.424 150.332 15.304C149.852 15.16 149.372 15.088 148.892 15.088C147.356 15.112 146.252 15.772 145.58 17.068C144.932 18.364 144.608 19.984 144.608 21.928C144.608 23.656 144.92 25.156 145.544 26.428C146.192 27.676 147.164 28.3 148.46 28.3Z" fill="white"/>
<g clip-path="url(#clip0)">
<path d="M15 38.9944H17.1595V37H15V38.9944ZM15.0441 47.5931V39.8515H17.1301V47.5931H15.0441ZM18.8191 39.8515H20.2146L20.6995 40.8266C21.243 39.9991 22.1096 39.6446 22.991 39.6446C24.7097 39.6446 25.606 40.6789 25.606 42.4813V47.5931H23.5347V42.821C23.5347 41.8902 23.1967 41.4913 22.4328 41.4913C21.3163 41.4913 20.8758 42.6142 20.8758 43.6928V47.5931H18.8191V39.8515ZM31.9664 47.5931L31.6874 46.7363C31.2027 47.2978 30.4094 47.7853 29.3663 47.7853C27.7358 47.7853 26.6634 46.8545 26.6634 45.3919C26.6634 42.895 29.2635 42.8506 31.5258 42.7325V42.3779C31.5258 41.6096 31.1292 41.2403 30.3065 41.2403C29.5426 41.2403 29.0726 41.5948 28.9843 42.2448C28.3528 42.2153 27.6916 42.1859 27.0454 42.1563C27.251 40.4129 28.5144 39.6594 30.3506 39.6594C32.4366 39.6594 33.5236 40.6345 33.5236 42.7766V47.5931H31.9664ZM31.5111 44.2099C29.6161 44.2984 28.7054 44.3871 28.7054 45.3327C28.7054 45.835 29.1167 46.1305 29.6602 46.1305C30.7179 46.1305 31.5111 45.5839 31.5111 44.52V44.2099ZM34.8601 41.5505V39.8515V38.4774L36.9314 37.5023V39.8515H38.7531V41.5505H36.9314V45.0667C36.9314 45.7169 37.2106 45.9385 37.7247 45.9385C38.0039 45.9385 38.327 45.9089 38.7825 45.835L38.9294 47.4898C38.3564 47.6523 37.813 47.7261 37.2986 47.7261C35.6681 47.7261 34.8601 46.8988 34.8601 45.1702V41.5505ZM43.204 47.8C40.7654 47.8 39.4727 46.1749 39.4727 43.7222C39.4727 41.2697 40.8535 39.6594 43.204 39.6594C45.6425 39.6594 46.95 41.3141 46.95 43.7222C46.95 46.1601 45.5837 47.8 43.204 47.8ZM43.204 41.4028C41.9993 41.4028 41.5879 42.4517 41.5879 43.7222C41.5879 45.0225 41.9699 46.0419 43.204 46.0419C44.4673 46.0419 44.8345 44.9781 44.8345 43.7222C44.8345 42.4369 44.4378 41.4028 43.204 41.4028Z" fill="white"/>
</g>
<path d="M3.4082 47.0928C4.74121 47.0928 5.61523 46.0137 5.61523 44.3682C5.61523 42.7129 4.74609 41.6436 3.4082 41.6436C2.68555 41.6436 2.0459 42 1.75781 42.5664H1.67969V39.6465H0.839844V47H1.64062V46.1602H1.71875C2.05078 46.7461 2.67578 47.0928 3.4082 47.0928ZM3.21289 42.4004C4.1748 42.4004 4.74609 43.1377 4.74609 44.3682C4.74609 45.5986 4.1748 46.3359 3.21289 46.3359C2.25586 46.3359 1.66016 45.584 1.66016 44.3682C1.66016 43.1523 2.25586 42.4004 3.21289 42.4004ZM7.0375 48.9043C7.97012 48.9043 8.39004 48.543 8.83926 47.3223L10.8949 41.7363H10.0014L8.56094 46.0674H8.48281L7.0375 41.7363H6.1293L8.07754 47.0049L7.97988 47.3174C7.76016 47.9521 7.49648 48.1816 7.01309 48.1816C6.8959 48.1816 6.76406 48.1768 6.66152 48.1572V48.875C6.77871 48.8945 6.9252 48.9043 7.0375 48.9043Z" fill="white"/>
<defs>
<clipPath id="clip0">
<path d="M15 37H46.95V47.8H15V37Z" fill="white"/>
</clipPath>
</defs>
</svg>
