<svg width="180" height="45" viewBox="0 0 180 45" fill="none" xmlns="http://www.w3.org/2000/svg">
<path d="M108.09 16.8542C107.624 16.6749 107.137 16.7254 106.807 16.9488L104.042 15.886C104.225 14.3286 104.044 12.7762 103.549 11.3357C104.334 11.0364 105.467 10.7008 106.158 10.9256C106.208 10.9422 106.254 10.9545 106.296 10.9652C106.546 11.3262 107.026 11.4718 107.445 11.2886C107.918 11.0815 108.132 10.5336 107.923 10.0646C107.715 9.59571 107.162 9.38326 106.689 9.59018C106.44 9.69914 106.264 9.90274 106.183 10.1392C105.735 10.2389 104.239 10.5614 103.283 10.6419C102.54 8.89518 101.319 7.34995 99.7138 6.21443C100.233 4.86485 101.104 3.14488 101.445 2.4839C101.934 2.62569 102.458 2.37577 102.646 1.89648C102.843 1.39065 102.59 0.821763 102.08 0.625759C101.57 0.429756 100.996 0.680861 100.799 1.18669C100.663 1.53423 100.74 1.91162 100.967 2.17734C100.367 3.57679 98.1042 5.27883 98.1042 5.27883V5.27901C97.8761 5.17219 97.643 5.07232 97.4041 4.98058C96.6527 4.69177 95.8883 4.49488 95.1233 4.38372C95.0023 3.91221 94.8253 3.06941 94.9054 2.42642C95.2446 2.3658 95.5329 2.1581 95.6555 1.84423C95.8542 1.33585 95.5439 0.742613 94.9625 0.519237C94.381 0.295743 93.7487 0.52666 93.5499 1.03504C93.3513 1.54343 93.6616 2.1366 94.243 2.36004C94.2792 2.37393 94.3154 2.38605 94.3518 2.39644C94.4756 2.90387 94.5791 3.65523 94.35 4.30048C93.4011 4.23374 92.4579 4.29679 91.5443 4.4795C91.2811 3.86536 90.8951 2.8705 90.8162 2.15762C91.0629 2.03157 91.2698 1.81371 91.3813 1.52853C91.6125 0.936894 91.3472 0.283274 90.7887 0.0686263C90.2303 -0.146021 89.59 0.159651 89.3589 0.751282C89.1277 1.34291 89.393 1.99653 89.9514 2.21118C90.0644 2.25459 90.1806 2.27572 90.2963 2.27851C90.3811 2.85204 90.5114 3.91399 90.4628 4.75631C89.7867 4.96746 89.1335 5.24558 88.5139 5.5864C87.7466 4.64165 86.5602 3.14649 85.9993 2.261C86.0539 2.185 86.1011 2.10205 86.1366 2.01102C86.3659 1.42426 86.0721 0.764345 85.4805 0.536932C84.8889 0.309578 84.2234 0.600881 83.9941 1.18758C83.7649 1.77435 84.0586 2.43426 84.6502 2.66167C84.9311 2.76962 85.2282 2.75947 85.4878 2.65746C85.9304 3.37663 86.8585 4.99649 87.1972 6.44362C86.1139 7.27074 85.1837 8.31578 84.4815 9.54512C83.6326 9.20388 82.2191 8.64152 81.7316 8.4815C81.7422 8.10618 81.4863 7.73282 81.0735 7.5741C80.5635 7.3781 80.0074 7.58408 79.8315 8.03427C79.6556 8.48441 79.9264 9.00829 80.4365 9.20429C80.7752 9.33439 81.1334 9.28653 81.3879 9.1084C82.1172 9.43129 83.3325 10.0361 84.0461 10.3955C83.9669 10.5694 83.8916 10.7463 83.8212 10.9263C83.7215 11.1813 83.6329 11.4378 83.5547 11.6953C82.2983 11.536 79.9916 11.1971 79.5031 10.8047C79.4767 10.7835 79.451 10.766 79.4257 10.7499C79.368 10.3283 79.0872 9.94971 78.6588 9.78506C78.0314 9.54393 77.3258 9.85281 77.0827 10.475C76.8395 11.0972 77.151 11.7969 77.7783 12.0381C78.294 12.2363 78.8621 12.0623 79.1832 11.6488L79.6184 11.6707C79.6184 11.6707 81.6011 12.0724 83.3073 12.6812C83.0377 14.0336 83.0488 15.3964 83.3086 16.6993C82.499 17.0588 81.1012 17.6764 80.3215 18.002C80.2156 18.0462 80.1275 18.0877 80.0542 18.1266C79.9522 17.9874 79.8105 17.8742 79.6366 17.8074C79.1545 17.6221 78.6124 17.8595 78.4256 18.3375C78.2388 18.8156 78.4781 19.3532 78.9602 19.5384C79.4422 19.7236 79.9843 19.4864 80.1711 19.0084C80.2245 18.8719 80.242 18.7307 80.2301 18.5941C80.7466 18.4617 82.4451 18.0298 83.5846 17.7773C83.8429 18.6 84.2032 19.3888 84.6564 20.1242C84.1293 20.6342 83.0904 21.5608 81.8993 22.2037C81.7871 22.092 81.6507 22.0008 81.493 21.9402C80.8886 21.7079 80.2087 22.0055 79.9746 22.6049C79.7403 23.2044 80.0404 23.8785 80.6448 24.1107C81.2492 24.3429 81.929 24.0454 82.1633 23.4461C82.266 23.183 82.2658 22.9057 82.1824 22.6576C82.3755 22.5514 84.3055 21.4937 85.3309 21.0918C85.8033 21.6937 86.3449 22.2471 86.9499 22.7391C86.8527 23.0157 86.0583 25.2035 85.0563 25.7061C85.0085 25.7299 84.9677 25.7529 84.9299 25.7755C84.4959 25.6953 84.0524 25.9293 83.8871 26.3523C83.7003 26.8303 83.9396 27.3679 84.4216 27.5532C84.9036 27.7385 85.4458 27.5012 85.6326 27.0231C85.7309 26.7716 85.7102 26.5041 85.5994 26.2797C85.9326 25.7577 87.3409 23.5874 87.839 23.3874C88.4487 23.7845 89.1092 24.1246 89.8169 24.3965C89.9747 24.4572 90.1332 24.5134 90.292 24.566C90.2988 25.1472 90.2584 26.3337 89.8344 26.6892C89.8091 26.7105 89.7894 26.7309 89.7722 26.7508C89.449 26.8643 89.1756 27.1109 89.042 27.4529C88.7986 28.0758 89.1104 28.7763 89.7385 29.0177C90.3665 29.2591 91.073 28.9499 91.3164 28.327C91.5081 27.8363 91.3543 27.2986 90.9738 26.9739C91.2202 26.3972 91.7524 25.2284 92.1121 24.9958C92.1121 24.9958 92.1121 24.9956 92.1122 24.9956C92.5786 25.0627 93.045 25.0972 93.5089 25.1016C93.6552 25.9512 93.9722 27.9883 93.819 28.8903C93.6339 29.0038 93.478 29.1835 93.3888 29.4118C93.1908 29.9184 93.3948 30.4689 93.8444 30.6417C94.2939 30.8145 94.8188 30.544 95.0168 30.0374C95.2148 29.5307 95.0105 28.9801 94.5612 28.8074C94.5589 28.8064 94.5563 28.8059 94.5538 28.8051C94.5783 28.338 94.7057 26.0774 94.9455 25.0175C96.0954 24.8703 97.2093 24.5346 98.2419 24.0316L98.9655 25.1514L99.0965 25.291C98.814 25.555 98.7051 25.9468 98.8552 26.2842C99.0518 26.7258 99.6169 26.9064 100.117 26.6873C100.618 26.4682 100.864 25.9324 100.667 25.4908C100.515 25.1478 100.14 24.9633 99.7451 25.0004L99.6281 24.6793L99.1566 23.5756C99.9071 23.9683 101.922 25.1046 102.461 26.2411C102.332 26.4926 102.319 26.8142 102.452 27.1131C102.672 27.6096 103.213 27.8537 103.658 27.6587C104.103 27.4639 104.285 26.9034 104.064 26.4071C103.843 25.9109 103.303 25.6665 102.858 25.8616C102.843 25.8684 102.828 25.8765 102.814 25.8841C102.307 25.43 100.809 24.0471 100.053 22.9108C100.865 22.2858 101.591 21.5376 102.198 20.6806C102.519 20.9443 103.171 21.4953 103.427 21.8241C103.435 21.956 103.466 22.09 103.524 22.2196C103.765 22.7599 104.365 23.0202 104.865 22.8012C105.365 22.5823 105.576 21.9668 105.336 21.4266C105.102 20.9011 104.527 20.6417 104.036 20.8298C103.615 20.6826 102.989 20.4337 102.562 20.1312C102.886 19.6059 103.167 19.0449 103.4 18.4505C103.565 18.0266 103.701 17.5985 103.808 17.1685C104.742 17.2968 105.957 17.9001 106.572 18.2324C106.728 18.4861 106.986 18.7053 107.317 18.8321C108 19.0949 108.727 18.865 108.941 18.3186C109.154 17.7727 108.773 17.1169 108.09 16.8542Z" fill="#124469"/>
<path d="M0.45 27L8.94 5.4H11.25L19.53 27H17.43L14.94 20.22H5.1L2.55 27H0.45ZM5.79 18.48H14.25L10.02 7.14L5.79 18.48ZM22.4798 8.16H22.4198V27H20.3798V5.4H22.6898L35.1698 24.27H35.2298V5.4H37.2698V27H34.8998L22.4798 8.16ZM38.1402 5.4H53.8602V7.14H47.0202V27H44.9802V7.14H38.1402V5.4ZM55.4801 27V5.4H57.5201V27H55.4801ZM60.0273 16.3799C60.0273 12.6104 61.0381 9.70508 63.0596 7.66406C64.8174 5.88672 67.0537 4.99805 69.7686 4.99805C73.4014 4.99805 76.0576 6.18945 77.7373 8.57227C78.665 9.91016 79.1631 11.2529 79.2314 12.6006H74.7197C74.4268 11.5654 74.0508 10.7842 73.5918 10.2568C72.7715 9.31934 71.5557 8.85059 69.9443 8.85059C68.3037 8.85059 67.0098 9.51465 66.0625 10.8428C65.1152 12.1611 64.6416 14.0312 64.6416 16.4531C64.6416 18.875 65.1396 20.6914 66.1357 21.9023C67.1416 23.1035 68.416 23.7041 69.959 23.7041C71.541 23.7041 72.7471 23.1865 73.5771 22.1514C74.0361 21.5947 74.417 20.7598 74.7197 19.6465H79.1875C78.7969 22 77.7959 23.9141 76.1846 25.3887C74.583 26.8633 72.5273 27.6006 70.0176 27.6006C66.9121 27.6006 64.4707 26.6045 62.6934 24.6123C60.916 22.6104 60.0273 19.8662 60.0273 16.3799ZM118.685 5.4082H123.372L116.004 27H111.741L104.446 5.4082H109.266L113.953 21.7998L118.685 5.4082ZM128.184 27H123.701V5.4082H128.184V27ZM134.782 9.1582V23.25H138.942C141.071 23.25 142.556 22.2002 143.396 20.1006C143.854 18.9482 144.084 17.5762 144.084 15.9844C144.084 13.7871 143.737 12.1025 143.044 10.9307C142.36 9.74902 140.993 9.1582 138.942 9.1582H134.782ZM139.704 5.4082C141.042 5.42773 142.155 5.58398 143.044 5.87695C144.558 6.375 145.783 7.28809 146.721 8.61621C147.473 9.69043 147.985 10.8525 148.259 12.1025C148.532 13.3525 148.669 14.5439 148.669 15.6768C148.669 18.5479 148.093 20.9795 146.94 22.9717C145.378 25.6572 142.966 27 139.704 27H130.402V5.4082H139.704ZM149.877 12.3516V9.50977C151.195 9.45117 152.118 9.36328 152.646 9.24609C153.485 9.06055 154.169 8.68945 154.696 8.13281C155.058 7.75195 155.331 7.24414 155.517 6.60938C155.624 6.22852 155.678 5.94531 155.678 5.75977H159.149V27H154.872V12.3516H149.877ZM163.39 13.2305C163.39 10.9551 164.044 9.11426 165.353 7.70801C166.671 6.29199 168.38 5.58398 170.479 5.58398C173.712 5.58398 175.929 7.01465 177.13 9.87598C177.813 11.4971 178.155 13.6309 178.155 16.2773C178.155 18.8457 177.828 20.9893 177.174 22.708C175.924 25.9795 173.629 27.6152 170.289 27.6152C168.697 27.6152 167.267 27.1465 165.997 26.209C164.728 25.2617 164 23.8848 163.814 22.0781H167.975C168.072 22.7031 168.336 23.2109 168.766 23.6016C169.195 23.9922 169.767 24.1875 170.479 24.1875C171.856 24.1875 172.823 23.4258 173.38 21.9023C173.683 21.0625 173.873 19.8369 173.951 18.2256C173.57 18.7041 173.165 19.0703 172.735 19.3242C171.954 19.793 170.992 20.0273 169.85 20.0273C168.16 20.0273 166.661 19.4463 165.353 18.2842C164.044 17.1123 163.39 15.4277 163.39 13.2305ZM170.758 16.6289C171.334 16.6289 171.876 16.4629 172.384 16.1309C173.331 15.5254 173.805 14.4756 173.805 12.9814C173.805 11.7803 173.521 10.8281 172.955 10.125C172.398 9.42188 171.632 9.07031 170.655 9.07031C169.942 9.07031 169.332 9.27051 168.824 9.6709C168.023 10.2959 167.623 11.3555 167.623 12.8496C167.623 14.1094 167.877 15.0566 168.385 15.6914C168.902 16.3164 169.693 16.6289 170.758 16.6289Z" fill="#124469"/>
<g clip-path="url(#clip0)">
<path d="M15 34.9944H17.1595V33H15V34.9944ZM15.0441 43.5931V35.8515H17.1301V43.5931H15.0441ZM18.8191 35.8515H20.2146L20.6995 36.8266C21.243 35.9991 22.1096 35.6446 22.991 35.6446C24.7097 35.6446 25.606 36.6789 25.606 38.4813V43.5931H23.5347V38.821C23.5347 37.8902 23.1967 37.4913 22.4328 37.4913C21.3163 37.4913 20.8758 38.6142 20.8758 39.6928V43.5931H18.8191V35.8515ZM31.9664 43.5931L31.6874 42.7363C31.2027 43.2978 30.4094 43.7853 29.3663 43.7853C27.7358 43.7853 26.6634 42.8545 26.6634 41.3919C26.6634 38.895 29.2635 38.8506 31.5258 38.7325V38.3779C31.5258 37.6096 31.1292 37.2403 30.3065 37.2403C29.5426 37.2403 29.0726 37.5948 28.9843 38.2448C28.3528 38.2153 27.6916 38.1859 27.0454 38.1563C27.251 36.4129 28.5144 35.6594 30.3506 35.6594C32.4366 35.6594 33.5236 36.6345 33.5236 38.7766V43.5931H31.9664ZM31.5111 40.2099C29.6161 40.2984 28.7054 40.3871 28.7054 41.3327C28.7054 41.835 29.1167 42.1305 29.6602 42.1305C30.7179 42.1305 31.5111 41.5839 31.5111 40.52V40.2099ZM34.8601 37.5505V35.8515V34.4774L36.9314 33.5023V35.8515H38.7531V37.5505H36.9314V41.0667C36.9314 41.7169 37.2106 41.9385 37.7247 41.9385C38.0039 41.9385 38.327 41.9089 38.7825 41.835L38.9294 43.4898C38.3564 43.6523 37.813 43.7261 37.2986 43.7261C35.6681 43.7261 34.8601 42.8988 34.8601 41.1702V37.5505ZM43.204 43.8C40.7654 43.8 39.4727 42.1749 39.4727 39.7222C39.4727 37.2697 40.8535 35.6594 43.204 35.6594C45.6425 35.6594 46.95 37.3141 46.95 39.7222C46.95 42.1601 45.5837 43.8 43.204 43.8ZM43.204 37.4028C41.9993 37.4028 41.5879 38.4517 41.5879 39.7222C41.5879 41.0225 41.9699 42.0419 43.204 42.0419C44.4673 42.0419 44.8345 40.9781 44.8345 39.7222C44.8345 38.4369 44.4378 37.4028 43.204 37.4028Z" fill="#124469"/>
</g>
<path d="M3.4082 43.0928C4.74121 43.0928 5.61523 42.0137 5.61523 40.3682C5.61523 38.7129 4.74609 37.6436 3.4082 37.6436C2.68555 37.6436 2.0459 38 1.75781 38.5664H1.67969V35.6465H0.839844V43H1.64062V42.1602H1.71875C2.05078 42.7461 2.67578 43.0928 3.4082 43.0928ZM3.21289 38.4004C4.1748 38.4004 4.74609 39.1377 4.74609 40.3682C4.74609 41.5986 4.1748 42.3359 3.21289 42.3359C2.25586 42.3359 1.66016 41.584 1.66016 40.3682C1.66016 39.1523 2.25586 38.4004 3.21289 38.4004ZM7.0375 44.9043C7.97012 44.9043 8.39004 44.543 8.83926 43.3223L10.8949 37.7363H10.0014L8.56094 42.0674H8.48281L7.0375 37.7363H6.1293L8.07754 43.0049L7.97988 43.3174C7.76016 43.9521 7.49648 44.1816 7.01309 44.1816C6.8959 44.1816 6.76406 44.1768 6.66152 44.1572V44.875C6.77871 44.8945 6.9252 44.9043 7.0375 44.9043Z" fill="#124469"/>
<defs>
<clipPath id="clip0">
<path d="M15 33H46.95V43.8H15V33Z" fill="white"/>
</clipPath>
</defs>
</svg>
