<svg width="221" height="40" viewBox="0 0 221 40" fill="none" xmlns="http://www.w3.org/2000/svg">
<path d="M191 20.8467H193.028V19H191V20.8467ZM191.041 28.8085V21.6403H193V28.8085H191.041ZM194.586 21.6402H195.896L196.352 22.5431C196.862 21.777 197.676 21.4487 198.503 21.4487C200.117 21.4487 200.959 22.4064 200.959 24.0752V28.8084H199.014V24.3898C199.014 23.528 198.696 23.1586 197.979 23.1586C196.931 23.1586 196.517 24.1983 196.517 25.197V28.8084H194.586V21.6402ZM206.931 28.8084L206.669 28.0151C206.214 28.535 205.469 28.9863 204.489 28.9863C202.958 28.9863 201.952 28.1245 201.952 26.7702C201.952 24.4583 204.393 24.4172 206.517 24.3079V23.9795C206.517 23.2682 206.145 22.9262 205.372 22.9262C204.655 22.9262 204.214 23.2545 204.131 23.8563C203.538 23.8289 202.917 23.8017 202.31 23.7743C202.503 22.1601 203.69 21.4624 205.414 21.4624C207.372 21.4624 208.393 22.3653 208.393 24.3487V28.8084H206.931ZM206.503 25.6758C204.724 25.7578 203.869 25.8399 203.869 26.7155C203.869 27.1805 204.255 27.4542 204.765 27.4542C205.759 27.4542 206.503 26.948 206.503 25.963V25.6758ZM209.648 23.2134V21.6403V20.368L211.593 19.4651V21.6403H213.303V23.2134H211.593V26.4692C211.593 27.0712 211.855 27.2764 212.338 27.2764C212.6 27.2764 212.903 27.249 213.331 27.1805L213.469 28.7128C212.931 28.8633 212.421 28.9316 211.938 28.9316C210.407 28.9316 209.648 28.1656 209.648 26.565V23.2134ZM217.483 29C215.193 29 213.979 27.4953 213.979 25.2243C213.979 22.9534 215.276 21.4624 217.483 21.4624C219.772 21.4624 221 22.9945 221 25.2243C221 27.4816 219.717 29 217.483 29ZM217.483 23.0766C216.351 23.0766 215.965 24.0478 215.965 25.2243C215.965 26.4282 216.324 27.3721 217.483 27.3721C218.669 27.3721 219.014 26.3871 219.014 25.2243C219.014 24.0341 218.641 23.0766 217.483 23.0766Z" fill="#124469"/>
<path d="M175.771 29.1299C177.638 29.1299 178.861 27.6191 178.861 25.3154C178.861 22.998 177.645 21.501 175.771 21.501C174.76 21.501 173.864 22 173.461 22.793H173.352V18.7051H172.176V29H173.297V27.8242H173.406C173.871 28.6445 174.746 29.1299 175.771 29.1299ZM175.498 22.5605C176.845 22.5605 177.645 23.5928 177.645 25.3154C177.645 27.0381 176.845 28.0703 175.498 28.0703C174.158 28.0703 173.324 27.0176 173.324 25.3154C173.324 23.6133 174.158 22.5605 175.498 22.5605ZM180.913 31.666C182.218 31.666 182.806 31.1602 183.435 29.4512L186.313 21.6309H185.062L183.045 27.6943H182.936L180.913 21.6309H179.641L182.369 29.0068L182.232 29.4443C181.924 30.333 181.555 30.6543 180.878 30.6543C180.714 30.6543 180.53 30.6475 180.386 30.6201V31.625C180.55 31.6523 180.755 31.666 180.913 31.666Z" fill="black"/>
<path d="M13.0664 29H15.8555L9.75 12.0898H6.92578L0.820312 29H3.51562L5.07422 24.4297H11.5195L13.0664 29ZM8.20312 15.0781H8.40234L10.8516 22.3203H5.74219L8.20312 15.0781ZM18.5156 29H21.0352V21.5352C21.0352 19.4844 22.2188 18.2188 24.082 18.2188C25.9453 18.2188 26.8359 19.25 26.8359 21.3594V29H29.3555V20.7617C29.3555 17.7266 27.7852 16.0273 24.9375 16.0273C23.0156 16.0273 21.75 16.8828 21.1289 18.2891H20.9414V16.2734H18.5156V29ZM33.7969 13.0625V16.3086H31.7695V18.3242H33.7969V25.6484C33.7969 28.0977 34.9102 29.082 37.7109 29.082C38.2031 29.082 38.6719 29.0234 39.082 28.9531V26.9492C38.7305 26.9844 38.5078 27.0078 38.1211 27.0078C36.8672 27.0078 36.3164 26.4102 36.3164 25.0391V18.3242H39.082V16.3086H36.3164V13.0625H33.7969ZM43.3477 14C44.2266 14 44.9414 13.2852 44.9414 12.418C44.9414 11.5391 44.2266 10.8242 43.3477 10.8242C42.4688 10.8242 41.7539 11.5391 41.7539 12.418C41.7539 13.2852 42.4688 14 43.3477 14ZM42.0938 29H44.6016V16.2734H42.0938V29ZM56.0391 23.3516V21.0195H48.3516V23.3516H56.0391ZM66.9727 29.4102C70.7461 29.4102 73.5234 27.2422 73.9922 23.9492H71.3789C70.9102 25.8711 69.2109 27.0781 66.9727 27.0781C63.9258 27.0781 62.0273 24.5703 62.0273 20.5508C62.0273 16.5312 63.9258 14.0117 66.9609 14.0117C69.1875 14.0117 70.8867 15.3477 71.3789 17.4453H73.9922C73.5703 14.0586 70.6875 11.6797 66.9609 11.6797C62.2617 11.6797 59.3438 15.0781 59.3438 20.5508C59.3438 26.0117 62.2734 29.4102 66.9727 29.4102ZM82.5469 29.2461C86.2734 29.2461 88.5586 26.75 88.5586 22.6367C88.5586 18.5234 86.2617 16.0273 82.5469 16.0273C78.8203 16.0273 76.5234 18.5352 76.5234 22.6367C76.5234 26.75 78.8086 29.2461 82.5469 29.2461ZM82.5469 27.1016C80.3555 27.1016 79.125 25.4727 79.125 22.6367C79.125 19.8008 80.3555 18.1602 82.5469 18.1602C84.7266 18.1602 85.9688 19.8008 85.9688 22.6367C85.9688 25.4609 84.7266 27.1016 82.5469 27.1016ZM101.906 16.2734H99.2344L96.0703 26.4219H95.8711L92.6953 16.2734H90L94.6055 29H97.3125L101.906 16.2734ZM105.762 14C106.641 14 107.355 13.2852 107.355 12.418C107.355 11.5391 106.641 10.8242 105.762 10.8242C104.883 10.8242 104.168 11.5391 104.168 12.418C104.168 13.2852 104.883 14 105.762 14ZM104.508 29H107.016V16.2734H104.508V29ZM115.383 29.2109C117.141 29.2109 118.629 28.3789 119.391 26.9844H119.59V29H122.004V11.2812H119.484V18.2891H119.297C118.605 16.8945 117.129 16.0508 115.383 16.0508C112.16 16.0508 110.086 18.6172 110.086 22.625C110.086 26.6562 112.137 29.2109 115.383 29.2109ZM116.098 18.207C118.207 18.207 119.531 19.918 119.531 22.6367C119.531 25.3789 118.219 27.0547 116.098 27.0547C113.965 27.0547 112.688 25.4023 112.688 22.6367C112.688 19.8828 113.977 18.207 116.098 18.207ZM133.523 23.3516V21.0195H125.836V23.3516H133.523ZM141.281 29H143.906V12.0898H141.293L136.84 15.2539V17.832L141.082 14.7969H141.281V29ZM154.512 29.3984C158.742 29.3984 161.215 26.0469 161.215 20.3047C161.215 14.6328 158.496 11.6797 154.617 11.6797C151.031 11.6797 148.488 14.1289 148.488 17.5625C148.488 20.8203 150.832 23.1992 154.055 23.1992C156.059 23.1992 157.676 22.2617 158.484 20.6445H158.684C158.613 24.8398 157.125 27.1836 154.535 27.1836C152.988 27.1836 151.781 26.3398 151.383 24.9453H148.734C149.238 27.6641 151.512 29.3984 154.512 29.3984ZM154.629 21.0781C152.543 21.0781 151.102 19.6133 151.102 17.4805C151.102 15.4414 152.625 13.8711 154.652 13.8711C156.668 13.8711 158.191 15.4648 158.191 17.5508C158.191 19.6016 156.703 21.0781 154.629 21.0781Z" fill="#124469"/>
</svg>
